# Blender v2.83.4 OBJ File: 'HidensityFloaterRBtest.blend'
# www.blender.org
mtllib HighDensityRB.mtl
o Cube
v 5.000000 5.000000 -5.000000
v 5.000000 -5.000000 -5.000000
v 5.000000 5.000000 5.000000
v 5.000000 -5.000000 5.000000
v -5.000000 5.000000 -5.000000
v -5.000000 -5.000000 -5.000000
v -5.000000 5.000000 5.000000
v -5.000000 -5.000000 5.000000
vt 0.712258 0.455286
vt 0.712140 0.455404
vt 0.712140 0.455286
vt 0.717294 0.456479
vt 0.716834 0.456938
vt 0.716834 0.456479
vt 0.712140 0.455051
vt 0.712022 0.455168
vt 0.712022 0.455051
vt 0.712022 0.455286
vt 0.711904 0.455404
vt 0.711904 0.455286
vt 0.712269 0.460029
vt 0.711892 0.460406
vt 0.711892 0.460029
vt 0.719401 0.458723
vt 0.719093 0.459031
vt 0.719093 0.458723
vt 0.712258 0.455404
vt 0.717294 0.456938
vt 0.712140 0.455168
vt 0.712022 0.455404
vt 0.712269 0.460406
vt 0.719401 0.459031
vn 0.0000 1.0000 0.0000
vn 0.0000 0.0000 1.0000
vn -1.0000 0.0000 0.0000
vn 0.0000 -1.0000 0.0000
vn 1.0000 0.0000 0.0000
vn 0.0000 0.0000 -1.0000
usemtl Material
s off
f 5/1/1 3/2/1 1/3/1
f 3/4/2 8/5/2 4/6/2
f 7/7/3 6/8/3 8/9/3
f 2/10/4 8/11/4 6/12/4
f 1/13/5 4/14/5 2/15/5
f 5/16/6 2/17/6 6/18/6
f 5/1/1 7/19/1 3/2/1
f 3/4/2 7/20/2 8/5/2
f 7/7/3 5/21/3 6/8/3
f 2/10/4 4/22/4 8/11/4
f 1/13/5 3/23/5 4/14/5
f 5/16/6 1/24/6 2/17/6
#floaters
fl 2.50000000 -2.50000000 -2.50000000 0.50000000 2.00000000 2.00000000 2.00000000 1.00000000
fl 0.00000000 -2.50000000 -2.50000000 0.50000000 2.00000000 2.00000000 2.00000000 1.00000000
fl -2.50000000 -2.50000000 -2.50000000 0.50000000 2.00000000 2.00000000 2.00000000 1.00000000
fl -5.00000000 -2.50000000 -2.50000000 0.50000000 2.00000000 2.00000000 2.00000000 1.00000000
fl 5.00000000 -2.50000000 -2.50000000 0.50000000 2.00000000 2.00000000 2.00000000 1.00000000
fl 2.50000000 -2.50000000 -5.00000000 0.50000000 2.00000000 2.00000000 2.00000000 1.00000000
fl 0.00000000 -2.50000000 -5.00000000 0.50000000 2.00000000 2.00000000 2.00000000 1.00000000
fl -2.50000000 -2.50000000 -5.00000000 0.50000000 2.00000000 2.00000000 2.00000000 1.00000000
fl -5.00000000 -2.50000000 -5.00000000 0.50000000 2.00000000 2.00000000 2.00000000 1.00000000
fl 5.00000000 -2.50000000 -5.00000000 0.50000000 2.00000000 2.00000000 2.00000000 1.00000000
fl 2.50000000 -2.50000000 0.00000000 0.50000000 2.00000000 2.00000000 2.00000000 1.00000000
fl 0.00000000 -2.50000000 0.00000000 0.50000000 2.00000000 2.00000000 2.00000000 1.00000000
fl -2.50000000 -2.50000000 0.00000000 0.50000000 2.00000000 2.00000000 2.00000000 1.00000000
fl -5.00000000 -2.50000000 0.00000000 0.50000000 2.00000000 2.00000000 2.00000000 1.00000000
fl 5.00000000 -2.50000000 0.00000000 0.50000000 2.00000000 2.00000000 2.00000000 1.00000000
fl 2.50000000 -2.50000000 2.50000000 0.50000000 2.00000000 2.00000000 2.00000000 1.00000000
fl 0.00000000 -2.50000000 2.50000000 0.50000000 2.00000000 2.00000000 2.00000000 1.00000000
fl -2.50000000 -2.50000000 2.50000000 0.50000000 2.00000000 2.00000000 2.00000000 1.00000000
fl -5.00000000 -2.50000000 2.50000000 0.50000000 2.00000000 2.00000000 2.00000000 1.00000000
fl 5.00000000 -2.50000000 2.50000000 0.50000000 2.00000000 2.00000000 2.00000000 1.00000000
fl 2.50000000 -2.50000000 5.00000000 0.50000000 2.00000000 2.00000000 2.00000000 1.00000000
fl 0.00000000 -2.50000000 5.00000000 0.50000000 2.00000000 2.00000000 2.00000000 1.00000000
fl -2.50000000 -2.50000000 5.00000000 0.50000000 2.00000000 2.00000000 2.00000000 1.00000000
fl -5.00000000 -2.50000000 5.00000000 0.50000000 2.00000000 2.00000000 2.00000000 1.00000000
fl 5.00000000 -2.50000000 5.00000000 0.50000000 2.00000000 2.00000000 2.00000000 1.00000000
fl 2.50000000 0.00000000 -2.50000000 0.50000000 2.00000000 2.00000000 2.00000000 1.00000000
fl 0.00000000 0.00000000 -2.50000000 0.50000000 2.00000000 2.00000000 2.00000000 1.00000000
fl -2.50000000 0.00000000 -2.50000000 0.50000000 2.00000000 2.00000000 2.00000000 1.00000000
fl -5.00000000 0.00000000 -2.50000000 0.50000000 2.00000000 2.00000000 2.00000000 1.00000000
fl 5.00000000 0.00000000 -2.50000000 0.50000000 2.00000000 2.00000000 2.00000000 1.00000000
fl 2.50000000 0.00000000 -5.00000000 0.50000000 2.00000000 2.00000000 2.00000000 1.00000000
fl 0.00000000 0.00000000 -5.00000000 0.50000000 2.00000000 2.00000000 2.00000000 1.00000000
fl -2.50000000 0.00000000 -5.00000000 0.50000000 2.00000000 2.00000000 2.00000000 1.00000000
fl -5.00000000 0.00000000 -5.00000000 0.50000000 2.00000000 2.00000000 2.00000000 1.00000000
fl 5.00000000 0.00000000 -5.00000000 0.50000000 2.00000000 2.00000000 2.00000000 1.00000000
fl 2.50000000 0.00000000 0.00000000 0.50000000 2.00000000 2.00000000 2.00000000 1.00000000
fl 0.00000000 0.00000000 0.00000000 0.50000000 2.00000000 2.00000000 2.00000000 1.00000000
fl -2.50000000 0.00000000 0.00000000 0.50000000 2.00000000 2.00000000 2.00000000 1.00000000
fl -5.00000000 0.00000000 0.00000000 0.50000000 2.00000000 2.00000000 2.00000000 1.00000000
fl 5.00000000 0.00000000 0.00000000 0.50000000 2.00000000 2.00000000 2.00000000 1.00000000
fl 2.50000000 0.00000000 2.50000000 0.50000000 2.00000000 2.00000000 2.00000000 1.00000000
fl 0.00000000 0.00000000 2.50000000 0.50000000 2.00000000 2.00000000 2.00000000 1.00000000
fl -2.50000000 0.00000000 2.50000000 0.50000000 2.00000000 2.00000000 2.00000000 1.00000000
fl -5.00000000 0.00000000 2.50000000 0.50000000 2.00000000 2.00000000 2.00000000 1.00000000
fl 5.00000000 0.00000000 2.50000000 0.50000000 2.00000000 2.00000000 2.00000000 1.00000000
fl 2.50000000 0.00000000 5.00000000 0.50000000 2.00000000 2.00000000 2.00000000 1.00000000
fl 0.00000000 0.00000000 5.00000000 0.50000000 2.00000000 2.00000000 2.00000000 1.00000000
fl -2.50000000 0.00000000 5.00000000 0.50000000 2.00000000 2.00000000 2.00000000 1.00000000
fl -5.00000000 0.00000000 5.00000000 0.50000000 2.00000000 2.00000000 2.00000000 1.00000000
fl 5.00000000 0.00000000 5.00000000 0.50000000 2.00000000 2.00000000 2.00000000 1.00000000
fl 2.50000000 -5.00000000 -2.50000000 0.50000000 2.00000000 2.00000000 2.00000000 1.00000000
fl 0.00000000 -5.00000000 -2.50000000 0.50000000 2.00000000 2.00000000 2.00000000 1.00000000
fl -2.50000000 -5.00000000 -2.50000000 0.50000000 2.00000000 2.00000000 2.00000000 1.00000000
fl -5.00000000 -5.00000000 -2.50000000 0.50000000 2.00000000 2.00000000 2.00000000 1.00000000
fl 5.00000000 -5.00000000 -2.50000000 0.50000000 2.00000000 2.00000000 2.00000000 1.00000000
fl 2.50000000 -5.00000000 -5.00000000 0.50000000 2.00000000 2.00000000 2.00000000 1.00000000
fl 0.00000000 -5.00000000 -5.00000000 0.50000000 2.00000000 2.00000000 2.00000000 1.00000000
fl -2.50000000 -5.00000000 -5.00000000 0.50000000 2.00000000 2.00000000 2.00000000 1.00000000
fl -5.00000000 -5.00000000 -5.00000000 0.50000000 2.00000000 2.00000000 2.00000000 1.00000000
fl 5.00000000 -5.00000000 -5.00000000 0.50000000 2.00000000 2.00000000 2.00000000 1.00000000
fl 2.50000000 -5.00000000 0.00000000 0.50000000 2.00000000 2.00000000 2.00000000 1.00000000
fl 0.00000000 -5.00000000 0.00000000 0.50000000 2.00000000 2.00000000 2.00000000 1.00000000
fl -2.50000000 -5.00000000 0.00000000 0.50000000 2.00000000 2.00000000 2.00000000 1.00000000
fl -5.00000000 -5.00000000 0.00000000 0.50000000 2.00000000 2.00000000 2.00000000 1.00000000
fl 5.00000000 -5.00000000 0.00000000 0.50000000 2.00000000 2.00000000 2.00000000 1.00000000
fl 2.50000000 -5.00000000 2.50000000 0.50000000 2.00000000 2.00000000 2.00000000 1.00000000
fl 0.00000000 -5.00000000 2.50000000 0.50000000 2.00000000 2.00000000 2.00000000 1.00000000
fl -2.50000000 -5.00000000 2.50000000 0.50000000 2.00000000 2.00000000 2.00000000 1.00000000
fl -5.00000000 -5.00000000 2.50000000 0.50000000 2.00000000 2.00000000 2.00000000 1.00000000
fl 5.00000000 -5.00000000 2.50000000 0.50000000 2.00000000 2.00000000 2.00000000 1.00000000
fl 2.50000000 -5.00000000 5.00000000 0.50000000 2.00000000 2.00000000 2.00000000 1.00000000
fl 0.00000000 -5.00000000 5.00000000 0.50000000 2.00000000 2.00000000 2.00000000 1.00000000
fl -2.50000000 -5.00000000 5.00000000 0.50000000 2.00000000 2.00000000 2.00000000 1.00000000
fl -5.00000000 -5.00000000 5.00000000 0.50000000 2.00000000 2.00000000 2.00000000 1.00000000
fl 5.00000000 -5.00000000 5.00000000 0.50000000 2.00000000 2.00000000 2.00000000 1.00000000
fl 2.50000000 2.50000000 -2.50000000 0.50000000 2.00000000 2.00000000 2.00000000 1.00000000
fl 0.00000000 2.50000000 -2.50000000 0.50000000 2.00000000 2.00000000 2.00000000 1.00000000
fl -2.50000000 2.50000000 -2.50000000 0.50000000 2.00000000 2.00000000 2.00000000 1.00000000
fl -5.00000000 2.50000000 -2.50000000 0.50000000 2.00000000 2.00000000 2.00000000 1.00000000
fl 5.00000000 2.50000000 -2.50000000 0.50000000 2.00000000 2.00000000 2.00000000 1.00000000
fl 2.50000000 2.50000000 -5.00000000 0.50000000 2.00000000 2.00000000 2.00000000 1.00000000
fl 0.00000000 2.50000000 -5.00000000 0.50000000 2.00000000 2.00000000 2.00000000 1.00000000
fl -2.50000000 2.50000000 -5.00000000 0.50000000 2.00000000 2.00000000 2.00000000 1.00000000
fl -5.00000000 2.50000000 -5.00000000 0.50000000 2.00000000 2.00000000 2.00000000 1.00000000
fl 5.00000000 2.50000000 -5.00000000 0.50000000 2.00000000 2.00000000 2.00000000 1.00000000
fl 2.50000000 2.50000000 0.00000000 0.50000000 2.00000000 2.00000000 2.00000000 1.00000000
fl 0.00000000 2.50000000 0.00000000 0.50000000 2.00000000 2.00000000 2.00000000 1.00000000
fl -2.50000000 2.50000000 0.00000000 0.50000000 2.00000000 2.00000000 2.00000000 1.00000000
fl -5.00000000 2.50000000 0.00000000 0.50000000 2.00000000 2.00000000 2.00000000 1.00000000
fl 5.00000000 2.50000000 0.00000000 0.50000000 2.00000000 2.00000000 2.00000000 1.00000000
fl 2.50000000 2.50000000 2.50000000 0.50000000 2.00000000 2.00000000 2.00000000 1.00000000
fl 0.00000000 2.50000000 2.50000000 0.50000000 2.00000000 2.00000000 2.00000000 1.00000000
fl -2.50000000 2.50000000 2.50000000 0.50000000 2.00000000 2.00000000 2.00000000 1.00000000
fl -5.00000000 2.50000000 2.50000000 0.50000000 2.00000000 2.00000000 2.00000000 1.00000000
fl 5.00000000 2.50000000 2.50000000 0.50000000 2.00000000 2.00000000 2.00000000 1.00000000
fl 2.50000000 2.50000000 5.00000000 0.50000000 2.00000000 2.00000000 2.00000000 1.00000000
fl 0.00000000 2.50000000 5.00000000 0.50000000 2.00000000 2.00000000 2.00000000 1.00000000
fl -2.50000000 2.50000000 5.00000000 0.50000000 2.00000000 2.00000000 2.00000000 1.00000000
fl -5.00000000 2.50000000 5.00000000 0.50000000 2.00000000 2.00000000 2.00000000 1.00000000
fl 5.00000000 2.50000000 5.00000000 0.50000000 2.00000000 2.00000000 2.00000000 1.00000000
fl 2.50000000 5.00000000 -2.50000000 0.50000000 2.00000000 2.00000000 2.00000000 1.00000000
fl 0.00000000 5.00000000 -2.50000000 0.50000000 2.00000000 2.00000000 2.00000000 1.00000000
fl -2.50000000 5.00000000 -2.50000000 0.50000000 2.00000000 2.00000000 2.00000000 1.00000000
fl -5.00000000 5.00000000 -2.50000000 0.50000000 2.00000000 2.00000000 2.00000000 1.00000000
fl 5.00000000 5.00000000 -2.50000000 0.50000000 2.00000000 2.00000000 2.00000000 1.00000000
fl 2.50000000 5.00000000 -5.00000000 0.50000000 2.00000000 2.00000000 2.00000000 1.00000000
fl 0.00000000 5.00000000 -5.00000000 0.50000000 2.00000000 2.00000000 2.00000000 1.00000000
fl -2.50000000 5.00000000 -5.00000000 0.50000000 2.00000000 2.00000000 2.00000000 1.00000000
fl -5.00000000 5.00000000 -5.00000000 0.50000000 2.00000000 2.00000000 2.00000000 1.00000000
fl 5.00000000 5.00000000 -5.00000000 0.50000000 2.00000000 2.00000000 2.00000000 1.00000000
fl 2.50000000 5.00000000 0.00000000 0.50000000 2.00000000 2.00000000 2.00000000 1.00000000
fl 0.00000000 5.00000000 0.00000000 0.50000000 2.00000000 2.00000000 2.00000000 1.00000000
fl -2.50000000 5.00000000 0.00000000 0.50000000 2.00000000 2.00000000 2.00000000 1.00000000
fl -5.00000000 5.00000000 0.00000000 0.50000000 2.00000000 2.00000000 2.00000000 1.00000000
fl 5.00000000 5.00000000 0.00000000 0.50000000 2.00000000 2.00000000 2.00000000 1.00000000
fl 2.50000000 5.00000000 2.50000000 0.50000000 2.00000000 2.00000000 2.00000000 1.00000000
fl 0.00000000 5.00000000 2.50000000 0.50000000 2.00000000 2.00000000 2.00000000 1.00000000
fl -2.50000000 5.00000000 2.50000000 0.50000000 2.00000000 2.00000000 2.00000000 1.00000000
fl -5.00000000 5.00000000 2.50000000 0.50000000 2.00000000 2.00000000 2.00000000 1.00000000
fl 5.00000000 5.00000000 2.50000000 0.50000000 2.00000000 2.00000000 2.00000000 1.00000000
fl 2.50000000 5.00000000 5.00000000 0.50000000 2.00000000 2.00000000 2.00000000 1.00000000
fl 0.00000000 5.00000000 5.00000000 0.50000000 2.00000000 2.00000000 2.00000000 1.00000000
fl -2.50000000 5.00000000 5.00000000 0.50000000 2.00000000 2.00000000 2.00000000 1.00000000
fl -5.00000000 5.00000000 5.00000000 0.50000000 2.00000000 2.00000000 2.00000000 1.00000000
fl 5.00000000 5.00000000 5.00000000 0.50000000 2.00000000 2.00000000 2.00000000 1.00000000