# Blender v2.83.4 OBJ File: 'TestFloater.blend'
# www.blender.org
mtllib TestFloater.mtl
o Cube_Cube.002
v 2.000000 -0.500000 1.000000
v 2.000000 0.500000 1.000000
v -2.000000 -0.500000 1.000000
v -2.000000 0.500000 1.000000
v 2.000000 -0.500000 -1.000000
v 2.000000 0.500000 -1.000000
v -2.000000 -0.500000 -1.000000
v -2.000000 0.500000 -1.000000
vt 0.965404 0.882959
vt 0.959843 0.888520
vt 0.959843 0.882959
vt 0.958146 0.775791
vt 0.951983 0.781954
vt 0.951983 0.775791
vt 0.960942 0.875673
vt 0.955381 0.881234
vt 0.955381 0.875673
vt 0.958146 0.788116
vt 0.951983 0.794279
vt 0.951983 0.788116
vt 0.952300 0.969845
vt 0.949874 0.972272
vt 0.949874 0.969845
vt 0.957154 0.969845
vt 0.954727 0.972272
vt 0.954727 0.969845
vt 0.965404 0.888520
vt 0.958146 0.781954
vt 0.960942 0.881234
vt 0.958146 0.794279
vt 0.952300 0.972272
vt 0.957154 0.972272
vn 0.0000 0.0000 1.0000
vn -1.0000 0.0000 0.0000
vn -0.0000 0.0000 -1.0000
vn 1.0000 0.0000 0.0000
vn 0.0000 -1.0000 0.0000
vn 0.0000 1.0000 0.0000
usemtl Texture
s off
f 2/1/1 3/2/1 1/3/1
f 4/4/2 7/5/2 3/6/2
f 8/7/3 5/8/3 7/9/3
f 6/10/4 1/11/4 5/12/4
f 7/13/5 1/14/5 3/15/5
f 4/16/6 6/17/6 8/18/6
f 2/1/1 4/19/1 3/2/1
f 4/4/2 8/20/2 7/5/2
f 8/7/3 6/21/3 5/8/3
f 6/10/4 2/22/4 1/11/4
f 7/13/5 5/23/5 1/14/5
f 4/16/6 2/24/6 6/17/6
#floaters
fl 2.00000000 0.00000000 1.00000000 0.50000000 2.00000000 2.00000000 2.00000000 1.00000000
fl -2.00000000 0.00000000 1.00000000 0.50000000 2.00000000 2.00000000 2.00000000 1.00000000
fl 2.00000000 0.00000000 -1.00000000 0.50000000 2.00000000 2.00000000 2.00000000 1.00000000
fl -2.00000000 0.00000000 -1.00000000 0.50000000 2.00000000 2.00000000 2.00000000 1.00000000
fl 1.00000000 0.00000000 1.00000000 0.50000000 2.00000000 2.00000000 2.00000000 1.00000000
fl 1.00000000 0.00000000 -1.00000000 0.50000000 2.00000000 2.00000000 2.00000000 1.00000000
fl 0.00000000 0.00000000 1.00000000 0.50000000 2.00000000 2.00000000 2.00000000 1.00000000
fl -0.00000000 0.00000000 -1.00000000 0.50000000 2.00000000 2.00000000 2.00000000 1.00000000
fl -1.00000000 0.00000000 1.00000000 0.50000000 2.00000000 2.00000000 2.00000000 1.00000000
fl -1.00000000 0.00000000 -1.00000000 0.50000000 2.00000000 2.00000000 2.00000000 1.00000000
fl 2.00000000 0.00000000 -0.00000000 0.50000000 2.00000000 2.00000000 2.00000000 1.00000000
fl -2.00000000 0.00000000 0.00000000 0.50000000 2.00000000 2.00000000 2.00000000 1.00000000
fl 1.00000000 0.00000000 -0.00000000 0.50000000 2.00000000 2.00000000 2.00000000 1.00000000
fl 0.00000000 0.00000000 -0.00000000 0.50000000 2.00000000 2.00000000 2.00000000 1.00000000
fl -1.00000000 0.00000000 -0.00000000 0.50000000 2.00000000 2.00000000 2.00000000 1.00000000
fl 2.00000000 0.50000000 1.00000000 0.50000000 2.00000000 2.00000000 2.00000000 1.00000000
fl -2.00000000 0.50000000 1.00000000 0.50000000 2.00000000 2.00000000 2.00000000 1.00000000
fl 2.00000000 0.50000000 -1.00000000 0.50000000 2.00000000 2.00000000 2.00000000 1.00000000
fl -2.00000000 0.50000000 -1.00000000 0.50000000 2.00000000 2.00000000 2.00000000 1.00000000
fl 1.00000000 0.50000000 1.00000000 0.50000000 2.00000000 2.00000000 2.00000000 1.00000000
fl 1.00000000 0.50000000 -1.00000000 0.50000000 2.00000000 2.00000000 2.00000000 1.00000000
fl 0.00000000 0.50000000 1.00000000 0.50000000 2.00000000 2.00000000 2.00000000 1.00000000
fl -0.00000000 0.50000000 -1.00000000 0.50000000 2.00000000 2.00000000 2.00000000 1.00000000
fl -1.00000000 0.50000000 1.00000000 0.50000000 2.00000000 2.00000000 2.00000000 1.00000000
fl -1.00000000 0.50000000 -1.00000000 0.50000000 2.00000000 2.00000000 2.00000000 1.00000000
fl 2.00000000 0.50000000 -0.00000000 0.50000000 2.00000000 2.00000000 2.00000000 1.00000000
fl -2.00000000 0.50000000 0.00000000 0.50000000 2.00000000 2.00000000 2.00000000 1.00000000
fl 1.00000000 0.50000000 -0.00000000 0.50000000 2.00000000 2.00000000 2.00000000 1.00000000
fl 0.00000000 0.50000000 -0.00000000 0.50000000 2.00000000 2.00000000 2.00000000 1.00000000
fl -1.00000000 0.50000000 -0.00000000 0.50000000 2.00000000 2.00000000 2.00000000 1.00000000
fl 2.00000000 -0.50000000 1.00000000 0.50000000 2.00000000 2.00000000 2.00000000 1.00000000
fl -2.00000000 -0.50000000 1.00000000 0.50000000 2.00000000 2.00000000 2.00000000 1.00000000
fl 2.00000000 -0.50000000 -1.00000000 0.50000000 2.00000000 2.00000000 2.00000000 1.00000000
fl -2.00000000 -0.50000000 -1.00000000 0.50000000 2.00000000 2.00000000 2.00000000 1.00000000
fl 1.00000000 -0.50000000 1.00000000 0.50000000 2.00000000 2.00000000 2.00000000 1.00000000
fl 1.00000000 -0.50000000 -1.00000000 0.50000000 2.00000000 2.00000000 2.00000000 1.00000000
fl 0.00000000 -0.50000000 1.00000000 0.50000000 2.00000000 2.00000000 2.00000000 1.00000000
fl -0.00000000 -0.50000000 -1.00000000 0.50000000 2.00000000 2.00000000 2.00000000 1.00000000
fl -1.00000000 -0.50000000 1.00000000 0.50000000 2.00000000 2.00000000 2.00000000 1.00000000
fl -1.00000000 -0.50000000 -1.00000000 0.50000000 2.00000000 2.00000000 2.00000000 1.00000000
fl 2.00000000 -0.50000000 -0.00000000 0.50000000 2.00000000 2.00000000 2.00000000 1.00000000
fl -2.00000000 -0.50000000 0.00000000 0.50000000 2.00000000 2.00000000 2.00000000 1.00000000
fl 1.00000000 -0.50000000 -0.00000000 0.50000000 2.00000000 2.00000000 2.00000000 1.00000000
fl 0.00000000 -0.50000000 -0.00000000 0.50000000 2.00000000 2.00000000 2.00000000 1.00000000
fl -1.00000000 -0.50000000 -0.00000000 0.50000000 2.00000000 2.00000000 2.00000000 1.00000000
fl -1.37720600 -0.27357400 -1.00000000 0.00000000 0.00000000 0.00000000 -1.00000000 20.00000000
fl 1.37720600 -0.27357400 -1.00000000 0.00000000 0.00000000 0.00000000 -1.00000000 20.00000000
fl 1.37720600 0.50000000 0.55175700 0.00000000 0.00000000 1.00000000 0.00000000 20.00000000
fl -1.37720600 0.50000000 0.55175700 0.00000000 0.00000000 1.00000000 0.00000000 20.00000000
fl -1.37720600 -0.27357400 1.00000000 0.00000000 0.00000000 0.00000000 1.00000000 20.00000000
fl 1.37720600 -0.27357400 1.00000000 0.00000000 0.00000000 0.00000000 1.00000000 20.00000000
fl -2.00000000 0.27357400 -0.00000000 0.00000000 -1.00000000 0.00000000 0.00000000 20.00000000
fl 2.00000000 0.27357400 -0.00000000 0.00000000 1.00000000 0.00000000 0.00000000 20.00000000
fl 1.37720600 -0.50000000 0.55175700 0.00000000 0.00000000 -1.00000000 0.00000000 20.00000000
fl -1.37720600 -0.50000000 0.55175700 0.00000000 0.00000000 -1.00000000 0.00000000 20.00000000
fl 0.00000000 -0.27357400 -1.00000000 0.00000000 0.00000000 0.00000000 -1.00000000 20.00000000
fl 0.00000000 0.50000000 0.55175700 0.00000000 0.00000000 1.00000000 0.00000000 20.00000000
fl 0.00000000 -0.27357400 1.00000000 0.00000000 0.00000000 0.00000000 1.00000000 20.00000000
fl 0.00000000 -0.50000000 0.55175700 0.00000000 0.00000000 -1.00000000 0.00000000 20.00000000
fl 1.37720600 0.50000000 -0.55175700 0.00000000 0.00000000 1.00000000 0.00000000 20.00000000
fl -1.37720600 0.50000000 -0.55175700 0.00000000 0.00000000 1.00000000 0.00000000 20.00000000
fl 1.37720600 -0.50000000 -0.55175700 0.00000000 0.00000000 -1.00000000 0.00000000 20.00000000
fl -1.37720600 -0.50000000 -0.55175700 0.00000000 0.00000000 -1.00000000 0.00000000 20.00000000
fl 0.00000000 0.50000000 -0.55175700 0.00000000 0.00000000 1.00000000 0.00000000 20.00000000
fl 0.00000000 -0.50000000 -0.55175700 0.00000000 0.00000000 -1.00000000 0.00000000 20.00000000
fl 1.37720600 0.50000000 -0.00000000 0.00000000 0.00000000 1.00000000 0.00000000 20.00000000
fl -1.37720600 0.50000000 -0.00000000 0.00000000 0.00000000 1.00000000 0.00000000 20.00000000
fl 0.00000000 0.50000000 -0.00000000 0.00000000 0.00000000 1.00000000 0.00000000 20.00000000
fl 1.37720600 -0.50000000 -0.00000000 0.00000000 0.00000000 -1.00000000 0.00000000 20.00000000
fl -1.37720600 -0.50000000 -0.00000000 0.00000000 0.00000000 -1.00000000 0.00000000 20.00000000
fl 0.00000000 -0.50000000 -0.00000000 0.00000000 0.00000000 -1.00000000 0.00000000 20.00000000
fl -1.37720600 0.27357400 1.00000000 0.00000000 0.00000000 0.00000000 1.00000000 20.00000000
fl 1.37720600 0.27357400 1.00000000 0.00000000 0.00000000 0.00000000 1.00000000 20.00000000
fl 0.00000000 0.27357400 1.00000000 0.00000000 0.00000000 0.00000000 1.00000000 20.00000000
fl -1.37720600 0.27357400 -1.00000000 0.00000000 0.00000000 0.00000000 -1.00000000 20.00000000
fl 1.37720600 0.27357400 -1.00000000 0.00000000 0.00000000 0.00000000 -1.00000000 20.00000000
fl 0.00000000 0.27357400 -1.00000000 0.00000000 0.00000000 0.00000000 -1.00000000 20.00000000
fl -2.00000000 0.27357400 -0.55175700 0.00000000 -1.00000000 0.00000000 0.00000000 20.00000000
fl 2.00000000 0.27357400 -0.55175700 0.00000000 1.00000000 0.00000000 0.00000000 20.00000000
fl -2.00000000 0.27357400 0.55175700 0.00000000 -1.00000000 0.00000000 0.00000000 20.00000000
fl 2.00000000 0.27357400 0.55175700 0.00000000 1.00000000 0.00000000 0.00000000 20.00000000
fl -2.00000000 -0.27357400 -0.00000000 0.00000000 -1.00000000 0.00000000 0.00000000 20.00000000
fl 2.00000000 -0.27357400 -0.00000000 0.00000000 1.00000000 0.00000000 0.00000000 20.00000000
fl -2.00000000 -0.27357400 -0.55175700 0.00000000 -1.00000000 0.00000000 0.00000000 20.00000000
fl 2.00000000 -0.27357400 -0.55175700 0.00000000 1.00000000 0.00000000 0.00000000 20.00000000
fl -2.00000000 -0.27357400 0.55175700 0.00000000 -1.00000000 0.00000000 0.00000000 20.00000000
fl 2.00000000 -0.27357400 0.55175700 0.00000000 1.00000000 0.00000000 0.00000000 20.00000000